<svg width="24" height="24" viewBox="0 0 24 24" fill="none" xmlns="http://www.w3.org/2000/svg">
<path d="M3.99107 8.63522C5.33177 8.6699 7.95576 7.79239 7.72612 4.00487C7.49648 0.217353 5.1404 5.51364 3.99107 8.63522Z" fill="url(#paint0_radial_723_2)" stroke="black"/>
<path d="M18.1789 15.5211L18.9766 17.1716" stroke="black"/>
<path d="M18.1779 15.5211L19.4609 16.105" stroke="black"/>
<path d="M18.232 15.4025L19.722 15.2223" stroke="black"/>
<path d="M10.1684 20.7457C15.5837 23.2102 17.6494 18.3326 18.0613 15.4681C21.2685 11.2054 21.5859 6.48592 16.9204 4.36262C11.205 1.76158 8.8762 7.80692 8.14699 10.9561C5.66728 14.5486 4.10295 17.9853 10.1684 20.7457Z" fill="url(#paint1_radial_723_2)" stroke="black"/>
<path d="M8.13867 10.6658L3.82302 8.70172" stroke="black"/>
<path d="M3.93454 8.66956C4.47505 10.06 5.0747 13.2799 3.14918 15.0359C1.22367 16.7918 1.24044 10.8768 3.93454 8.66956Z" fill="url(#paint2_radial_723_2)" stroke="black"/>
<path d="M12.1595 7.05961C12.495 6.32229 13.3478 6.00387 14.0559 6.32614C14.764 6.6484 15.084 7.50055 14.7485 8.23786C14.4129 8.97517 13.5602 9.2936 12.8521 8.97133C12.1439 8.64906 11.8239 7.79692 12.1595 7.05961Z" fill="#E15465" stroke="black"/>
<mask id="path-9-inside-1_723_2" fill="white">
<ellipse cx="17.3833" cy="8.29298" rx="0.897051" ry="0.911457" transform="rotate(-155.53 17.3833 8.29298)"/>
</mask>
<ellipse cx="17.3833" cy="8.29298" rx="0.897051" ry="0.911457" transform="rotate(-155.53 17.3833 8.29298)" fill="#E37575"/>
<path d="M17.477 8.33562C17.463 8.3664 17.412 8.40331 17.3467 8.37357L18.1751 6.55321C17.2079 6.11303 16.0877 6.56006 15.6567 7.50718L17.477 8.33562ZM17.3467 8.37357C17.2813 8.34382 17.2756 8.28112 17.2896 8.25033L19.11 9.07877C19.541 8.13166 19.1423 6.99339 18.1751 6.55321L17.3467 8.37357ZM17.2896 8.25033C17.3036 8.21955 17.3546 8.18264 17.42 8.21239L16.5916 10.0327C17.5588 10.4729 18.679 10.0259 19.11 9.07877L17.2896 8.25033ZM17.42 8.21239C17.4854 8.24213 17.491 8.30484 17.477 8.33562L15.6567 7.50718C15.2256 8.4543 15.6244 9.59256 16.5916 10.0327L17.42 8.21239Z" fill="black" mask="url(#path-9-inside-1_723_2)"/>
<defs>
<radialGradient id="paint0_radial_723_2" cx="0" cy="0" r="1" gradientUnits="userSpaceOnUse" gradientTransform="translate(5.70197 7.25051) rotate(-65.5297) scale(6.69468 6.05533)">
<stop stop-color="#086B0C"/>
<stop offset="1" stop-color="#09540C" stop-opacity="0.52"/>
</radialGradient>
<radialGradient id="paint1_radial_723_2" cx="0" cy="0" r="1" gradientUnits="userSpaceOnUse" gradientTransform="translate(13.4571 12.5144) rotate(-65.5297) scale(8.85414 5.81912)">
<stop offset="0.056389" stop-color="#DD4848" stop-opacity="0.91"/>
<stop offset="1" stop-color="#BF0A0A"/>
</radialGradient>
<radialGradient id="paint2_radial_723_2" cx="0" cy="0" r="1" gradientUnits="userSpaceOnUse" gradientTransform="translate(2.69787 13.3398) rotate(-65.5297) scale(6.64061 7.12636)">
<stop stop-color="#086B0C"/>
<stop offset="1" stop-color="#09540C" stop-opacity="0.52"/>
</radialGradient>
</defs>
</svg>
