<svg width="96" height="83" viewBox="0 0 96 83" fill="none" xmlns="http://www.w3.org/2000/svg">
<rect x="0.5" y="38.522" width="43.1055" height="43.1055" rx="9.5" fill="white" stroke="#CDCDCD"/>
<rect x="35.6635" y="22.2357" width="43.1055" height="43.1055" rx="9.5" transform="rotate(-30 35.6635 22.2357)" fill="white" stroke="#CDCDCD"/>
<circle cx="50.0421" cy="26.0885" r="4.94286" transform="rotate(-30 50.0421 26.0885)" fill="#C4C4C4"/>
<circle cx="50.0421" cy="37.0885" r="4.94286" transform="rotate(-30 50.0421 26.0885)" fill="#C4C4C4"/>
<circle cx="61.0685" cy="45.1871" r="4.94286" transform="rotate(-30 61.0685 45.1871)" fill="#C4C4C4"/>
<circle cx="69.1398" cy="26.1871" r="4.94286" transform="rotate(-30 69.1398 15.0621)" fill="#C4C4C4"/>
<circle cx="69.1398" cy="15.0621" r="4.94286" transform="rotate(-30 69.1398 15.0621)" fill="#C4C4C4"/>
<circle cx="80.1661" cy="34.1608" r="4.94286" transform="rotate(-30 80.1661 34.1608)" fill="#C4C4C4"/>
<circle cx="11.0268" cy="49.0483" r="4.94286" fill="#C4C4C4"/>
<circle cx="11.0268" cy="71.1011" r="4.94286" fill="#C4C4C4"/>
<circle cx="21.6724" cy="71.1011" r="4.94286" fill="#C4C4C4"/>
<circle cx="21.6724" cy="49.0483" r="4.94286" fill="#C4C4C4"/>
<circle cx="33.0796" cy="49.0483" r="4.94286" fill="#C4C4C4"/>
<circle cx="33.0796" cy="71.1011" r="4.94286" fill="#C4C4C4"/>
</svg>
