<svg width="47" height="52" viewBox="0 0 47 52" fill="none" xmlns="http://www.w3.org/2000/svg">
<path d="M20.5781 47.2709L34.3859 52L46.4747 39.9118L32.5715 35.2776L20.5781 47.2709ZM26.7957 46.5327C26.0643 47.264 24.8725 47.5806 24.133 47.2395C23.3941 46.8984 23.3872 46.0294 24.1191 45.2981C24.8505 44.5667 26.0422 44.2501 26.7818 44.5913C27.5213 44.9324 27.5269 45.8013 26.7957 46.5327ZM31.2545 48.0946C30.5232 48.8259 29.3314 49.1425 28.5918 48.8014C27.853 48.4602 27.8461 47.5913 28.578 46.86C29.3099 46.1286 30.5011 45.812 31.2407 46.1531C31.9796 46.4943 31.9859 47.3632 31.2545 48.0946ZM40.2447 41.1011C40.976 40.3697 42.1678 40.0531 42.9074 40.3943C43.6462 40.7354 43.6531 41.6043 42.9219 42.3357C42.1906 43.0671 40.9987 43.3836 40.2591 43.0425C39.5196 42.7014 39.5134 41.8325 40.2447 41.1011ZM35.7989 39.6397C36.5303 38.9084 37.7221 38.5918 38.4617 38.9329C39.2005 39.274 39.2074 40.143 38.4755 40.8743C37.7442 41.6057 36.5524 41.9223 35.8128 41.5811C35.074 41.24 35.0677 40.3711 35.7989 39.6397ZM35.6865 47.6145C36.4254 47.9556 36.4323 48.8246 35.7004 49.5559C34.969 50.2873 33.7773 50.6039 33.0377 50.2627C32.2981 49.9216 32.292 49.0527 33.0232 48.3213C33.7552 47.5907 34.9469 47.274 35.6865 47.6145ZM34.0027 37.3704C34.7415 37.7115 34.7484 38.5805 34.0165 39.3118C33.2852 40.0432 32.0934 40.3598 31.3538 40.0186C30.615 39.6775 30.6081 38.8086 31.34 38.0772C32.0713 37.3459 33.2632 37.0299 34.0027 37.3704Z" fill="#C4C4C4"/>
<path d="M46.6991 38.2412L42.134 24.5452L28.438 19.9794L33.0031 33.6748L46.6991 38.2412ZM36.5291 27.5019C37.0406 26.9905 38.0684 27.1884 38.8248 27.9449C39.5812 28.7014 39.7798 29.7293 39.2678 30.2406C38.7563 30.7521 37.7285 30.5541 36.9721 29.7976C36.2156 29.0412 36.017 28.0133 36.5291 27.5019Z" fill="#C4C4C4"/>
<path d="M13.9366 0L1.02344 6.45624L13.9365 12.9125L26.849 6.45624L13.9366 0ZM13.9366 7.76619C12.8673 7.76619 11.9996 7.17938 11.9996 6.45624C11.9996 5.73248 12.8667 5.14629 13.9366 5.14629C15.0066 5.14629 15.8737 5.7331 15.8737 6.45624C15.8729 7.17999 15.006 7.76619 13.9366 7.76619Z" fill="#C4C4C4"/>
<path d="M17.2561 24.7544C17.8731 24.527 18.3888 24.8869 18.5672 25.5768L26.3008 17.8433L27.8721 18.3673V7.79575L14.7642 14.35V29.3799L16.0892 28.0549C15.9541 27.8155 15.8731 27.5051 15.8731 27.1376C15.8731 26.1028 16.4927 25.0359 17.2561 24.7544ZM25.6908 10.6595C26.4548 10.378 27.0736 10.9881 27.0736 12.0222C27.0736 13.0563 26.4548 14.1231 25.6908 14.4046C24.9268 14.6861 24.3079 14.076 24.3079 13.0419C24.3078 12.0077 24.9268 10.941 25.6908 10.6595ZM21.7501 17.4254C22.5141 17.1439 23.133 17.7541 23.133 18.7882C23.133 19.8222 22.5141 20.8891 21.7501 21.1706C20.9861 21.4521 20.3673 20.842 20.3673 19.8079C20.3673 18.7738 20.9868 17.7069 21.7501 17.4254ZM15.8731 17.2011C15.8731 16.167 16.4919 15.1002 17.2559 14.8187C18.0199 14.5372 18.6388 15.1473 18.6388 16.1814C18.6388 17.2156 18.0199 18.2823 17.2559 18.5638C16.4921 18.8453 15.8731 18.2353 15.8731 17.2011Z" fill="#C4C4C4"/>
<path d="M0 24.8907L12.9232 31.2201L13.1084 31.0348V14.35L0 7.79575V24.8907ZM10.5846 24.7544C11.3486 25.0359 11.9675 26.1028 11.9675 27.1369C11.9675 28.1709 11.3486 28.7811 10.5846 28.4996C9.82063 28.2181 9.20179 27.1512 9.20179 26.1171C9.20179 25.083 9.82137 24.4729 10.5846 24.7544ZM6.55429 17.2162C7.31829 17.4977 7.93713 18.5644 7.93713 19.5987C7.93713 20.6328 7.31829 21.2429 6.55429 20.9614C5.79028 20.6799 5.17145 19.613 5.17145 18.5789C5.17132 17.5448 5.7909 16.9347 6.55429 17.2162ZM2.40626 10.6595C3.17026 10.941 3.7891 12.0077 3.7891 13.0419C3.7891 14.076 3.17026 14.6861 2.40626 14.4046C1.64225 14.1231 1.02342 13.0564 1.02342 12.0222C1.02342 10.9881 1.64225 10.378 2.40626 10.6595Z" fill="#C4C4C4"/>
<path d="M26.7671 20.2031L14.6782 32.2907L19.4079 46.0999L31.4013 34.1053L26.7671 20.2031ZM21.6044 41.5459C20.8731 42.2773 20.0035 42.271 19.663 41.5314C19.3225 40.792 19.6385 39.6001 20.3698 38.8687C21.1012 38.1374 21.9707 38.1436 22.3113 38.8826C22.6518 39.6216 22.3358 40.8146 21.6044 41.5459ZM25.638 27.2142C24.9066 27.9455 24.0371 27.9391 23.6966 27.2003C23.3554 26.4614 23.672 25.2689 24.4034 24.5376C25.1347 23.8062 26.0043 23.8126 26.3448 24.5514C26.6861 25.2909 26.3693 26.4828 25.638 27.2142Z" fill="#C4C4C4"/>
</svg>
