<svg width="23" height="23" viewBox="0 0 23 23" fill="none" xmlns="http://www.w3.org/2000/svg">
<circle cx="11.5" cy="11.5" r="11" fill="white" stroke="#5F9DA5"/>
<path d="M14.8551 15.705L14.599 16.3904C13.8308 16.5889 13.2171 16.7401 12.7602 16.8439C12.3027 16.9482 11.7712 17 11.1656 17C10.2356 17 9.51225 16.8508 8.99633 16.5545C8.48041 16.2571 8.22237 15.8801 8.22237 15.4228C8.22237 15.2458 8.2411 15.0637 8.28002 14.8782C8.31928 14.6924 8.3817 14.4832 8.46711 14.2494L9.42717 12.0245C9.51258 11.8114 9.58518 11.6095 9.64333 11.4186C9.70229 11.2289 9.73071 11.0544 9.73071 10.8972C9.73071 10.6131 9.64086 10.4143 9.46199 10.3026C9.28312 10.1912 8.9418 10.1346 8.43508 10.1346C8.18689 10.1346 7.93181 10.1606 7.6718 10.211C7.41063 10.2615 7.18741 10.3103 7 10.3557L7.25673 9.66978C7.88565 9.50211 8.48682 9.35853 9.06187 9.23937C9.63692 9.11988 10.1803 9.06008 10.6942 9.06008C11.6178 9.06008 12.3305 9.20624 12.831 9.49856C13.3315 9.79109 13.5816 10.1703 13.5816 10.6376C13.5816 10.7343 13.5652 10.9047 13.5299 11.1481C13.4954 11.3922 13.4312 11.6158 13.3375 11.8191L12.3816 14.0352C12.3032 14.2132 12.2328 14.4167 12.1715 14.6456C12.1083 14.8731 12.0781 15.0469 12.0781 15.1635C12.0781 15.4577 12.1782 15.6586 12.3791 15.7654C12.5815 15.8722 12.93 15.9254 13.4251 15.9254C13.6575 15.9254 13.922 15.8984 14.2158 15.8454C14.5088 15.7923 14.7225 15.7458 14.8551 15.705ZM15.0975 6.40136C15.0975 6.78747 14.8753 7.11721 14.4287 7.38834C13.9832 7.66044 13.4464 7.7966 12.8185 7.7966C12.1886 7.7966 11.6505 7.66044 11.2 7.38834C10.7502 7.1171 10.5249 6.78747 10.5249 6.40136C10.5249 6.01602 10.7502 5.68573 11.2 5.41116C11.6497 5.13702 12.1888 5 12.8185 5C13.4463 5 13.9832 5.13734 14.4287 5.41116C14.8756 5.68573 15.0975 6.01612 15.0975 6.40136Z" fill="#5F9DA5"/>
</svg>
